# xmcd
#
# Track frame offsets:
#	150
#	23012
#	49164
#	67018
#	93254
#	112413
#	143685
#	162292
#	187853
#	207386
#	225248
#
# Disc length: 3280 seconds
#
# Revision: 10
# Processed by: cddbd v1.5.2PL0 Copyright (c) Steve Scherf et al.
# Submitted via: Jack! The Knife 20 Magnifico
#
DISCID=900cce0b
DTITLE=Muse - The Resistance
DYEAR=2009
DGENRE=Alternative
TTITLE0=Uprising
TTITLE1=Resistance
TTITLE2=Undisclosed Desires
TTITLE3=United States Of Eurasia (+Collateral Damage)
TTITLE4=Guiding Light
TTITLE5=Unnatural Selection
TTITLE6=MK Ultra
TTITLE7=I Belong to You (+Mon Coeur S'ouvre à Ta Voix)
TTITLE8=Exogenesis Symphony Part 1 (Overture)
TTITLE9=Exogenesis Symphony Part 2 (Cross-Pollination)
TTITLE10=Exogenesis Symphony Part 3 (Redemption)
EXTD=Muse
EXTT0=Matthew Bellamy
EXTT1=Matthew Bellamy
EXTT2=Matthew Bellamy
EXTT3=Matthew Bellamy
EXTT4=Matthew Bellamy
EXTT5=Matthew Bellamy
EXTT6=Matthew Bellamy
EXTT7=Matthew Bellamy
EXTT8=Matthew Bellamy
EXTT9=Matthew Bellamy
EXTT10=Matthew Bellamy
PLAYORDER=
